<mxfile host="app.diagrams.net" modified="2023-05-14T12:50:43.925Z" agent="Mozilla/5.0 (Windows NT 10.0; Win64; x64) AppleWebKit/537.36 (KHTML, like Gecko) Chrome/113.0.0.0 Safari/537.36" etag="VSfsg7mBh3lWnyBjJQto" version="21.3.0" type="device">
  <diagram name="Страница 1" id="dHWUzyFw0qD1QLnV_Zmk">
    <mxGraphModel dx="2074" dy="1148" grid="1" gridSize="10" guides="1" tooltips="1" connect="1" arrows="1" fold="1" page="1" pageScale="1" pageWidth="827" pageHeight="1169" math="0" shadow="0">
      <root>
        <mxCell id="0" />
        <mxCell id="1" parent="0" />
        <mxCell id="TKN5GL8MWM1sGR7kySSR-3" style="edgeStyle=orthogonalEdgeStyle;rounded=0;orthogonalLoop=1;jettySize=auto;html=1;" edge="1" parent="1" source="TKN5GL8MWM1sGR7kySSR-1" target="TKN5GL8MWM1sGR7kySSR-2">
          <mxGeometry relative="1" as="geometry" />
        </mxCell>
        <mxCell id="TKN5GL8MWM1sGR7kySSR-1" value="Начало&lt;br&gt;printAllTrains" style="ellipse;whiteSpace=wrap;html=1;" vertex="1" parent="1">
          <mxGeometry x="354" y="10" width="120" height="80" as="geometry" />
        </mxCell>
        <mxCell id="TKN5GL8MWM1sGR7kySSR-5" style="edgeStyle=orthogonalEdgeStyle;rounded=0;orthogonalLoop=1;jettySize=auto;html=1;entryX=0.5;entryY=0;entryDx=0;entryDy=0;" edge="1" parent="1" source="TKN5GL8MWM1sGR7kySSR-2" target="TKN5GL8MWM1sGR7kySSR-4">
          <mxGeometry relative="1" as="geometry" />
        </mxCell>
        <mxCell id="TKN5GL8MWM1sGR7kySSR-12" style="edgeStyle=orthogonalEdgeStyle;rounded=0;orthogonalLoop=1;jettySize=auto;html=1;" edge="1" parent="1" source="TKN5GL8MWM1sGR7kySSR-2">
          <mxGeometry relative="1" as="geometry">
            <mxPoint x="414" y="440" as="targetPoint" />
            <Array as="points">
              <mxPoint x="331" y="150" />
            </Array>
          </mxGeometry>
        </mxCell>
        <mxCell id="TKN5GL8MWM1sGR7kySSR-13" value="TRUE" style="edgeLabel;html=1;align=center;verticalAlign=middle;resizable=0;points=[];" vertex="1" connectable="0" parent="TKN5GL8MWM1sGR7kySSR-12">
          <mxGeometry x="0.6228" y="2" relative="1" as="geometry">
            <mxPoint x="18" y="-288" as="offset" />
          </mxGeometry>
        </mxCell>
        <mxCell id="TKN5GL8MWM1sGR7kySSR-2" value="!Node" style="rhombus;whiteSpace=wrap;html=1;" vertex="1" parent="1">
          <mxGeometry x="374" y="110" width="80" height="80" as="geometry" />
        </mxCell>
        <mxCell id="TKN5GL8MWM1sGR7kySSR-7" style="edgeStyle=orthogonalEdgeStyle;rounded=0;orthogonalLoop=1;jettySize=auto;html=1;entryX=0.5;entryY=0;entryDx=0;entryDy=0;" edge="1" parent="1" source="TKN5GL8MWM1sGR7kySSR-4" target="TKN5GL8MWM1sGR7kySSR-6">
          <mxGeometry relative="1" as="geometry" />
        </mxCell>
        <mxCell id="TKN5GL8MWM1sGR7kySSR-4" value="&lt;div style=&quot;font-size: 14px; line-height: 19px;&quot;&gt;&lt;span style=&quot;background-color: rgb(255, 255, 255);&quot;&gt;printAllTrains(Node-&amp;gt;left)&lt;/span&gt;&lt;/div&gt;" style="rounded=0;whiteSpace=wrap;html=1;" vertex="1" parent="1">
          <mxGeometry x="354" y="210" width="120" height="60" as="geometry" />
        </mxCell>
        <mxCell id="TKN5GL8MWM1sGR7kySSR-9" style="edgeStyle=orthogonalEdgeStyle;rounded=0;orthogonalLoop=1;jettySize=auto;html=1;" edge="1" parent="1" source="TKN5GL8MWM1sGR7kySSR-6" target="TKN5GL8MWM1sGR7kySSR-8">
          <mxGeometry relative="1" as="geometry" />
        </mxCell>
        <mxCell id="TKN5GL8MWM1sGR7kySSR-6" value="&lt;div style=&quot;font-size: 14px; line-height: 19px;&quot;&gt;&lt;span style=&quot;background-color: rgb(255, 255, 255);&quot;&gt;printTrain(Node-&amp;gt;train)&lt;/span&gt;&lt;/div&gt;" style="rounded=0;whiteSpace=wrap;html=1;" vertex="1" parent="1">
          <mxGeometry x="354" y="290" width="120" height="60" as="geometry" />
        </mxCell>
        <mxCell id="TKN5GL8MWM1sGR7kySSR-11" style="edgeStyle=orthogonalEdgeStyle;rounded=0;orthogonalLoop=1;jettySize=auto;html=1;entryX=0.5;entryY=0;entryDx=0;entryDy=0;" edge="1" parent="1" source="TKN5GL8MWM1sGR7kySSR-8" target="TKN5GL8MWM1sGR7kySSR-10">
          <mxGeometry relative="1" as="geometry" />
        </mxCell>
        <mxCell id="TKN5GL8MWM1sGR7kySSR-8" value="&lt;div style=&quot;font-size: 14px; line-height: 19px;&quot;&gt;&lt;span style=&quot;background-color: rgb(255, 255, 255);&quot;&gt;printAllTrains(Node-&amp;gt;right)&lt;/span&gt;&lt;/div&gt;" style="rounded=0;whiteSpace=wrap;html=1;" vertex="1" parent="1">
          <mxGeometry x="354" y="370" width="120" height="60" as="geometry" />
        </mxCell>
        <mxCell id="TKN5GL8MWM1sGR7kySSR-10" value="Конец" style="ellipse;whiteSpace=wrap;html=1;" vertex="1" parent="1">
          <mxGeometry x="354" y="460" width="120" height="80" as="geometry" />
        </mxCell>
      </root>
    </mxGraphModel>
  </diagram>
</mxfile>
